<svg width="19" height="19" viewBox="0 0 19 19" fill="none" xmlns="http://www.w3.org/2000/svg">
<path d="M17.4895 10.1912C17.3519 11.6807 16.6782 13.1001 15.7633 14.2834C14.8483 15.4668 13.6153 16.3651 12.2085 16.8732C10.8017 17.3814 9.27928 17.4784 7.81935 17.1528C6.35943 16.8273 5.02241 16.0927 3.96474 15.0351C2.90707 13.9774 2.17249 12.6404 1.84696 11.1804C1.52143 9.72051 1.61842 8.19807 2.12657 6.79126C2.63472 5.38445 3.53302 4.15145 4.71635 3.23653C5.89969 2.32162 7.31911 1.76264 8.80854 1.625C7.93653 2.80473 7.51691 4.25827 7.62601 5.72124C7.7351 7.18421 8.36567 8.55943 9.40302 9.59677C10.4404 10.6341 11.8156 11.2647 13.2786 11.3738C14.7415 11.4829 16.1951 11.0633 17.3748 10.1912H17.4895Z" stroke="#5F6775" stroke-width="1.5" stroke-linecap="round" stroke-linejoin="round"/>
</svg>
